<?xml version="1.0" encoding="utf-8"?>
<!-- Generator: Adobe Illustrator 24.1.2, SVG Export Plug-In . SVG Version: 6.00 Build 0)  -->
<svg version="1.1" id="Layer_1" xmlns="http://www.w3.org/2000/svg" xmlns:xlink="http://www.w3.org/1999/xlink" x="0px" y="0px"
	 viewBox="0 0 209 28" style="enable-background:new 0 0 209 28;" xml:space="preserve">
<style type="text/css">
	.st0{fill-rule:evenodd;clip-rule:evenodd;}
</style>
<g id="Symbols">
	<g id="Header-Scrolled" transform="translate(-31.000000, -20.000000)">
		<g id="forest-ontario-logo-white" transform="translate(31.000000, 20.000000)">
			<g id="Forest-Ontario" transform="translate(34.000000, 8.000000)">
				<polygon id="Fill-1" class="st0" points="0,0.5 9.1,0.5 8.7,2.4 2.6,2.4 2.6,6.7 7.9,6.7 7.9,8.6 2.6,8.6 2.6,15.8 0,15.8 				
					"/>
				<path id="Fill-2" class="st0" d="M19.8,7.8C19.8,4.3,19,2,16.6,2c-2.4,0-3.3,2.3-3.3,5.9c0,3.6,0.9,5.9,3.3,5.9
					C19,13.7,19.8,11.4,19.8,7.8 M10.6,7.8c0-4.5,2-7.8,6-7.8s6,3.3,6,7.8s-2,7.8-6,7.8S10.6,12.4,10.6,7.8"/>
				<path id="Fill-4" class="st0" d="M30.3,7.1c1.6,0,2.6-0.9,2.6-2.5c0-1.6-0.9-2.5-2.6-2.5h-2v5H30.3z M25.7,0.3h4.7
					c3.7,0,5.1,1.8,5.1,4.1c0,2-1.2,3.4-2.9,3.7v0.1c1,0.3,1.7,1.8,2.3,3.3c0.6,1.7,1,3.6,1.5,3.8v0.1h-3.2C32.6,12.2,31.8,9,30.1,9
					h-1.8v6.5h-2.6V0.3z"/>
				<polygon id="Fill-6" class="st0" points="38.9,0.3 47.9,0.3 47.5,2.2 41.5,2.2 41.5,6.4 46.7,6.4 46.7,8.3 41.5,8.3 41.5,13.5 
					47.5,13.5 48,15.5 38.9,15.5 				"/>
				<path id="Fill-8" class="st0" d="M49.8,12.6l1.7-1.3c0.2,1.6,1.5,2.5,3.2,2.5c1.7,0,2.7-0.8,2.7-2.1c0-1.4-0.6-2.1-3.4-2.9
					c-3-0.9-4-2.4-4-4.4C50,1.7,51.9,0,55,0c2.7,0,4,1.1,4.4,3.1l-1.7,1.3C57.6,2.8,56.7,2,54.9,2c-1.5,0-2.4,0.7-2.4,2.1
					c0,1.1,0.5,1.7,2.5,2.2c3.5,1,4.9,2.4,4.9,5c0,2.8-2.1,4.4-5.3,4.4C51.9,15.7,50.3,14.6,49.8,12.6"/>
				<polygon id="Fill-10" class="st0" points="65.4,2.2 61.7,2.2 61.3,0.3 72,0.3 71.6,2.2 67.9,2.2 67.9,15.5 65.4,15.5 				"/>
				<path id="Fill-12" class="st0" d="M73.5,12.6l1.7-1.3c0.2,1.6,1.5,2.5,3.2,2.5c1.7,0,2.7-0.8,2.7-2.1c0-1.4-0.6-2.1-3.4-2.9
					c-3-0.9-4-2.4-4-4.4c0-2.6,1.9-4.3,5-4.3c2.7,0,4,1.1,4.4,3.1l-1.7,1.3C81.3,2.8,80.3,2,78.5,2C77,2,76.1,2.6,76.1,4
					c0,1.1,0.5,1.7,2.5,2.2c3.5,1,4.9,2.4,4.9,5c0,2.8-2.1,4.4-5.3,4.4C75.6,15.7,74,14.6,73.5,12.6"/>
				<path id="Fill-14" class="st0" d="M100.9,7.9c0-3.8-1.3-6.7-4.1-6.7c-2.9,0-4.1,2.9-4.1,6.7c0,3.8,1.2,6.7,4.1,6.7
					C99.7,14.6,100.9,11.7,100.9,7.9 M91.4,7.9c0-4.2,1.7-7.6,5.4-7.6c3.7,0,5.5,3.4,5.5,7.6c0,4.2-1.7,7.6-5.5,7.6
					C93.1,15.5,91.4,12.1,91.4,7.9"/>
				<polygon id="Fill-17" class="st0" points="106.7,0.6 107.8,0.6 114.3,12.4 114.6,13.3 114.7,13.3 114.7,12.3 114.7,0.6 
					115.7,0.6 115.7,15.2 114.7,15.2 108.1,3.5 107.7,2.5 107.6,2.5 107.7,3.5 107.7,15.2 106.7,15.2 				"/>
				<polygon id="Fill-19" class="st0" points="123.6,1.6 119.7,1.6 119.5,0.6 129.1,0.6 128.9,1.6 124.9,1.6 124.9,15.2 123.6,15.2 
									"/>
				<path id="Fill-21" class="st0" d="M138,8.9L136,2.5l-0.2-0.9h-0.1l-0.2,0.9l-1.9,6.4H138z M136.6,0.6l4.6,14.6h-1.4l-1.6-5.4
					h-4.9l-1.6,5.4h-1.2l4.6-14.6H136.6z"/>
				<path id="Fill-23" class="st0" d="M148.5,7.6c2.1,0,3.2-1.2,3.2-3.1c0-1.9-1.2-3-3.2-3h-2.3v6.1H148.5z M145,0.6h3.5
					c3.3,0,4.6,1.8,4.6,3.9c0,1.8-1,3.3-2.7,3.6v0.1c0.9,0.2,1.6,1.7,2.1,3.2c0.6,1.7,1.1,3.5,1.5,3.8v0h-1.7
					c-0.7-2.9-1.7-6.7-3.5-6.7h-2.6v6.7H145V0.6z"/>
				<polygon id="Fill-25" class="st0" points="158.2,15.2 159.5,15.2 159.5,0.6 158.2,0.6 				"/>
				<path id="Fill-27" class="st0" d="M173.6,7.9c0-3.8-1.3-6.7-4.1-6.7c-2.9,0-4.1,2.9-4.1,6.7c0,3.8,1.2,6.7,4.1,6.7
					C172.4,14.6,173.6,11.7,173.6,7.9 M164.1,7.9c0-4.2,1.7-7.6,5.4-7.6c3.7,0,5.5,3.4,5.5,7.6c0,4.2-1.7,7.6-5.5,7.6
					C165.8,15.5,164.1,12.1,164.1,7.9"/>
			</g>
			<g id="Icon">
				<path id="Fill-28" class="st0" d="M11,28c-0.4,0-0.7-0.3-0.7-0.7v-3.2H0.7c-0.2,0-0.5-0.1-0.6-0.3c-0.1-0.2-0.1-0.4,0-0.6
					L12.5,0.4C12.6,0.1,12.8,0,13.1,0c0.2,0,0.5,0.1,0.6,0.3l1.2,1.9C15.1,2.6,15,3,14.7,3.2c-0.3,0.2-0.7,0.1-0.9-0.2L13.1,2
					L1.8,22.8H11c0.4,0,0.7,0.3,0.7,0.7v3.9C11.7,27.7,11.4,28,11,28"/>
				<path id="Fill-29" class="st0" d="M14,28c-0.4,0-0.7-0.3-0.7-0.7v-6.4H6.7c-0.2,0-0.4-0.1-0.6-0.3c-0.1-0.2-0.1-0.5,0-0.7
					l8.6-16.5C14.8,3.1,15,3,15.3,3c0.2,0,0.5,0.1,0.6,0.3l1.1,1.9C17.1,5.6,17,6,16.7,6.2c-0.3,0.2-0.7,0.1-0.9-0.2l-0.5-0.9
					L7.7,19.5H14c0.4,0,0.7,0.3,0.7,0.7v7.1C14.6,27.7,14.3,28,14,28"/>
				<path id="Fill-30" class="st0" d="M16.8,28c-0.4,0-0.7-0.3-0.7-0.7v-9.4h-4.4c-0.2,0-0.5-0.1-0.6-0.3c-0.1-0.2-0.1-0.4,0-0.7
					l5.5-9.6C16.7,7.1,16.9,7,17.2,7c0.3,0,0.5,0.1,0.6,0.3l6.1,9.3c0.1,0.2,0.1,0.5,0,0.7c-0.1,0.2-0.4,0.3-0.6,0.3h-3.6
					c-0.4,0-0.7-0.3-0.7-0.7s0.3-0.7,0.7-0.7H22L17.2,9l-4.4,7.6h3.9c0.4,0,0.7,0.3,0.7,0.7v10.1C17.5,27.7,17.2,28,16.8,28"/>
			</g>
		</g>
	</g>
</g>
</svg>
